PathFileType        4      (X/Y/Z)      C:\Users\u0101727\OneDrive - KU Leuven\reference_data\TRC\gait_64.trc         																																																																																																																																																																																		
DataRate	CameraRate	NumFrames	NumMarkers	Units	OrigDataRate	OrigDataStartFrame	OrigNumFrames																																																																																																																																																																											
100	100	8	59	m	100	56	441																																																																																																																																																																											
Frame#	Time	LPSI			RPSI			LKNE			LTHI1			LTHI2			LTHI3			LTIB1			LTIB2			LTIB3			foot_l1			foot_l2			foot_l5			foot_l6			RANK_med			Foot_r10			RSHO			LSHO			hum_l2			LELB			rad_l2			LW2			LH			hum_r2			RELB			rad_r2			foot_l9			LANK_med			Foot_r1			foot_l7			LANK			foot_l3			RTIB3			Foot_r2			Foot_r5			Foot_r9			RW2			RTIB2			LW1			RKNE			Foot_r4			Foot_r7			RH			Foot_r6			foot_l10			RTIB1			RANK			RTHI1			RTHI3			RW1			Foot_r8			RASI			foot_l4			CLAV			Foot_r3			LASI			LKNE_med			RKNE_med			RTHI2			foot_l8		
		X1	Y1	Z1	X2	Y2	Z2	X3	Y3	Z3	X4	Y4	Z4	X5	Y5	Z5	X6	Y6	Z6	X7	Y7	Z7	X8	Y8	Z8	X9	Y9	Z9	X10	Y10	Z10	X11	Y11	Z11	X12	Y12	Z12	X13	Y13	Z13	X14	Y14	Z14	X15	Y15	Z15	X16	Y16	Z16	X17	Y17	Z17	X18	Y18	Z18	X19	Y19	Z19	X20	Y20	Z20	X21	Y21	Z21	X22	Y22	Z22	X23	Y23	Z23	X24	Y24	Z24	X25	Y25	Z25	X26	Y26	Z26	X27	Y27	Z27	X28	Y28	Z28	X29	Y29	Z29	X30	Y30	Z30	X31	Y31	Z31	X32	Y32	Z32	X33	Y33	Z33	X34	Y34	Z34	X35	Y35	Z35	X36	Y36	Z36	X37	Y37	Z37	X38	Y38	Z38	X39	Y39	Z39	X40	Y40	Z40	X41	Y41	Z41	X42	Y42	Z42	X43	Y43	Z43	X44	Y44	Z44	X45	Y45	Z45	X46	Y46	Z46	X47	Y47	Z47	X48	Y48	Z48	X49	Y49	Z49	X50	Y50	Z50	X51	Y51	Z51	X52	Y52	Z52	X53	Y53	Z53	X54	Y54	Z54	X55	Y55	Z55	X56	Y56	Z56	X57	Y57	Z57	X58	Y58	Z58	X59	Y59	Z59
56	0.56	-1.4524	0.9445	0.25607	-1.4509	0.93725	0.30555	-1.4362	0.43258	0.16267	-1.3026	0.63637	0.15135	-1.3538	0.6439	0.10345	-1.3376	0.59051	0.12953	-1.4956	0.25087	0.17564	-1.5566	0.26666	0.14973	-1.538	0.21296	0.1665	-1.6528	0.071295	0.2349	-1.6635	0.039853	0.23356	-1.4877	0.0069145	0.18723	-1.4633	0.016457	0.23272	-1.0668	0.10386	0.28221	-1.0454	0.077383	0.28474	-1.3659	1.3635	0.44443	-1.3253	1.3655	0.096433	-1.3309	1.2099	0.039476	-1.3484	1.0367	0.027795	-1.2457	0.97307	0.021519	-1.1909	0.86435	0.01521	-1.1256	0.83728	0.023431	-1.4238	1.2224	0.47378	-1.4819	1.0824	0.4854	-1.467	0.94339	0.55541	-1.5283	0.03234	0.28487	-1.594	0.090728	0.27948	-1.1127	0.054521	0.32144	-1.4339	0.013177	0.27086	-1.5913	0.073131	0.19644	-1.5914	0.04258	0.2064	-1.1323	0.2326	0.39993	-1.1037	0.019591	0.32363	-0.95301	0.077981	0.38722	-0.97843	0.10516	0.29806	-1.4911	0.86421	0.57662	-1.1842	0.25459	0.40519	-1.1486	0.89293	0.064042	-1.1692	0.45096	0.39033	-1.017	0.052709	0.36618	-0.90032	0.12577	0.31306	-1.4598	0.8121	0.60433	-0.92764	0.10605	0.34853	-1.5978	0.055499	0.27719	-1.1194	0.28648	0.39905	-1.0743	0.072429	0.36251	-1.2524	0.73851	0.4643	-1.2646	0.68178	0.46914	-1.422	0.85208	0.56638	-0.92546	0.10775	0.29717	-1.2726	0.91818	0.393	-1.5605	0.022522	0.20036	-1.2637	1.3386	0.26262	NaN	NaN	NaN	NaN	NaN	NaN	NaN	NaN	NaN	NaN	NaN	NaN	NaN	NaN	NaN	NaN	NaN	NaN
57	0.57	-1.4388	0.94277	0.25684	-1.4373	0.93549	0.30636	-1.4282	0.43231	0.16305	-1.2917	0.63464	0.15221	-1.3424	0.64263	0.10412	-1.327	0.58933	0.13069	-1.4908	0.25158	0.17523	-1.5516	0.26871	0.14962	-1.5334	0.21448	0.16695	-1.6513	0.075038	0.23455	-1.6625	0.043743	0.23344	-1.4875	0.0070173	0.18724	-1.4634	0.016672	0.23286	-1.0446	0.10645	0.28067	-1.0226	0.080524	0.28227	-1.3534	1.3617	0.44503	-1.3127	1.3642	0.097074	-1.3178	1.2085	0.04025	-1.3347	1.0352	0.028331	-1.2314	0.97249	0.0225	-1.1751	0.86433	0.016704	-1.11	0.83809	0.025015	-1.4118	1.2208	0.47422	-1.4694	1.0805	0.48524	-1.4551	0.94126	0.55513	-1.5277	0.033554	0.2848	-1.5921	0.093126	0.27923	-1.0893	0.055578	0.31942	-1.4339	0.013118	0.27093	-1.5898	0.075676	0.1962	-1.5903	0.045068	0.20605	-1.1124	0.2331	0.39876	-1.0793	0.020732	0.32097	-0.9306	0.081454	0.3856	-0.9558	0.10978	0.29648	-1.4798	0.86249	0.57626	-1.1651	0.25367	0.40463	-1.1332	0.89271	0.065401	-1.1558	0.45025	0.39053	-0.99371	0.055752	0.36413	-0.87828	0.13172	0.31211	-1.4491	0.80996	0.60391	-0.90533	0.11114	0.3477	-1.5966	0.058015	0.27682	-1.1011	0.28747	0.3982	-1.0525	0.073617	0.36011	-1.2385	0.73538	0.46319	-1.252	0.67945	0.46983	-1.4111	0.85013	0.56674	-0.90312	0.11311	0.29593	-1.2588	0.91654	0.3933	-1.5599	0.023809	0.20045	-1.2511	1.3372	0.26302	NaN	NaN	NaN	NaN	NaN	NaN	NaN	NaN	NaN	NaN	NaN	NaN	NaN	NaN	NaN	NaN	NaN	NaN
58	0.58	-1.4252	0.94119	0.25758	-1.4235	0.93382	0.30722	-1.4191	0.43198	0.16324	-1.2799	0.63335	0.15311	-1.3304	0.64147	0.10495	-1.3157	0.58824	0.13188	-1.4855	0.25271	0.17523	-1.5465	0.27087	0.14929	-1.5292	0.21623	0.16637	-1.6494	0.078952	0.23417	-1.6614	0.047983	0.23313	-1.488	0.0072596	0.18725	-1.4632	0.016644	0.233	-1.0257	0.10742	0.27918	-1.0033	0.082029	0.28053	-1.3409	1.36	0.44571	-1.2999	1.3627	0.097649	-1.3047	1.207	0.040986	-1.3213	1.0338	0.029057	-1.2175	0.97178	0.023564	-1.1606	0.86416	0.018011	-1.0948	0.83834	0.0271	-1.3983	1.2184	0.47434	-1.4568	1.0786	0.48522	-1.443	0.93862	0.55512	-1.5271	0.034736	0.28461	-1.5901	0.096026	0.27889	-1.0694	0.055969	0.31752	-1.4339	0.013102	0.27103	-1.588	0.078454	0.19585	-1.5893	0.047808	0.20584	-1.0939	0.23336	0.39773	-1.0589	0.021343	0.31897	-0.91089	0.083306	0.38376	-0.93682	0.11159	0.29485	-1.4679	0.85964	0.57597	-1.147	0.25282	0.404	-1.1192	0.89384	0.067089	-1.1418	0.44945	0.39041	-0.97387	0.057014	0.36208	-0.85927	0.13499	0.31043	-1.4378	0.80749	0.6034	-0.88602	0.11312	0.34561	-1.5952	0.060942	0.27654	-1.0834	0.28779	0.39703	-1.0321	0.075352	0.35883	-1.2246	0.73291	0.46274	-1.2389	0.6774	0.47164	-1.399	0.84765	0.56628	-0.88386	0.1161	0.29425	-1.2448	0.91454	0.39329	-1.5593	0.025994	0.20013	-1.2382	1.3359	0.26377	NaN	NaN	NaN	NaN	NaN	NaN	NaN	NaN	NaN	NaN	NaN	NaN	NaN	NaN	NaN	NaN	NaN	NaN
59	0.59	-1.4114	0.93972	0.25827	-1.4097	0.93233	0.30791	-1.4093	0.43195	0.16318	-1.2674	0.63249	0.15391	-1.3181	0.64057	0.10582	-1.3035	0.58721	0.1328	-1.4797	0.25381	0.17515	-1.5402	0.27311	0.1491	-1.5239	0.21791	0.16632	-1.6474	0.08347	0.23363	-1.6599	0.052812	0.23274	-1.4878	0.0072281	0.18707	-1.4629	0.016616	0.23294	-1.01	0.10697	0.27822	-0.9872	0.081478	0.27951	-1.3284	1.3582	0.44638	-1.2873	1.3614	0.098253	-1.2918	1.206	0.041475	-1.308	1.0323	0.029892	-1.2038	0.97097	0.024733	-1.1458	0.86399	0.019291	-1.0801	0.83857	0.028527	-1.3868	1.217	0.47512	-1.4439	1.0766	0.48537	-1.4305	0.93641	0.55506	-1.5258	0.036446	0.28473	-1.5876	0.098973	0.27836	-1.0529	0.05533	0.31616	-1.4339	0.013042	0.27125	-1.5858	0.081323	0.19538	-1.5877	0.050686	0.20549	-1.0774	0.23298	0.39649	-1.0424	0.020796	0.3177	-0.89423	0.083371	0.38194	-0.92089	0.1119	0.29329	-1.4557	0.85756	0.57583	-1.1305	0.25251	0.40344	-1.1049	0.89359	0.068586	-1.1272	0.4487	0.38999	-0.95699	0.056932	0.36078	-0.84322	0.13544	0.3084	-1.4259	0.80496	0.60292	-0.86975	0.11338	0.34373	-1.5935	0.063853	0.27616	-1.0673	0.2875	0.39559	-1.0147	0.075296	0.35846	-1.2103	0.73122	0.46301	-1.2249	0.67597	0.47286	-1.3869	0.84528	0.56624	-0.86797	0.11668	0.29229	-1.231	0.91194	0.39288	-1.5584	0.028046	0.19972	-1.2254	1.3348	0.26458	NaN	NaN	NaN	NaN	NaN	NaN	NaN	NaN	NaN	NaN	NaN	NaN	NaN	NaN	NaN	NaN	NaN	NaN
60	0.6	-1.3975	0.93827	0.25889	-1.3958	0.93091	0.30865	-1.3985	0.43132	0.1633	-1.2547	0.63129	0.15425	-1.3053	0.6397	0.10664	-1.291	0.58631	0.13338	-1.4733	0.25431	0.17536	-1.5324	0.27525	0.14906	-1.518	0.2198	0.16599	-1.6449	0.088315	0.23286	-1.6581	0.057684	0.23204	-1.4874	0.007479	0.1871	-1.4627	0.016546	0.23296	-0.99718	0.1054	0.27685	-0.97447	0.079451	0.27825	-1.3158	1.3565	0.44717	-1.2745	1.3601	0.098981	-1.2793	1.2045	0.042245	-1.2948	1.0309	0.030795	-1.1904	0.97007	0.025892	-1.132	0.86344	0.020742	-1.066	0.83843	0.029927	-1.3739	1.2151	0.47574	-1.4304	1.0743	0.48559	-1.4186	0.93528	0.55535	-1.5256	0.037408	0.28511	-1.5848	0.10214	0.27777	-1.0402	0.053841	0.31546	-1.4339	0.012897	0.27153	-1.5834	0.084662	0.19474	-1.5862	0.054067	0.20493	-1.0632	0.23178	0.39514	-1.0298	0.019283	0.31686	-0.88092	0.081384	0.37997	-0.9079	0.10938	0.2913	-1.4429	0.85532	0.57566	-1.116	0.25173	0.40256	-1.0912	0.89316	0.069912	-1.112	0.44825	0.38948	-0.94411	0.054923	0.35906	-0.83012	0.13288	0.306	-1.4134	0.80239	0.60248	-0.85654	0.11113	0.34145	-1.5916	0.067446	0.27542	-1.0526	0.28604	0.39399	-1.0025	0.072898	0.356	-1.1959	0.73062	0.46364	-1.21	0.67514	0.47268	-1.3745	0.8431	0.56654	-0.85502	0.11416	0.28994	-1.2165	0.91114	0.39322	-1.5576	0.030714	0.19916	-1.2124	1.3335	0.26529	NaN	NaN	NaN	NaN	NaN	NaN	NaN	NaN	NaN	NaN	NaN	NaN	NaN	NaN	NaN	NaN	NaN	NaN
61	0.61	-1.3833	0.93698	0.25942	-1.3816	0.92959	0.30919	-1.3868	0.43084	0.1631	-1.2414	0.62999	0.15462	-1.2925	0.63884	0.10702	-1.2782	0.58524	0.13352	-1.4659	0.25445	0.1751	-1.525	0.27738	0.14842	-1.5117	0.22143	0.16558	-1.6419	0.093291	0.2319	-1.6561	0.063275	0.23115	-1.4863	0.0070822	0.18753	-1.4625	0.016579	0.23312	-0.98699	0.10206	0.27506	-0.96485	0.076072	0.27678	-1.3031	1.3548	0.44797	-1.2616	1.3589	0.099811	-1.2662	1.203	0.043481	-1.2822	1.0297	0.031656	-1.1773	0.96909	0.027067	-1.1184	0.86249	0.021935	-1.053	0.83796	0.031068	-1.3607	1.2131	0.47627	-1.4169	1.0722	0.48607	-1.4053	0.93308	0.55581	-1.5246	0.039255	0.28466	-1.5816	0.1056	0.27698	-1.0305	0.051409	0.31466	-1.434	0.012719	0.27177	-1.5806	0.088239	0.19379	-1.5839	0.057195	0.20429	-1.0505	0.22979	0.39396	-1.0208	0.01682	0.3162	-0.8706	0.077458	0.37809	-0.89781	0.10507	0.28918	-1.4296	0.85303	0.57553	-1.1029	0.25036	0.40087	-1.078	0.89258	0.071287	-1.0956	0.44795	0.38822	-0.9342	0.051559	0.3577	-0.8196	0.12751	0.3032	-1.4003	0.79984	0.60209	-0.84613	0.10672	0.33918	-1.5893	0.070962	0.27457	-1.0392	0.28424	0.39281	-0.99192	0.070799	0.35549	-1.1815	0.73069	0.46411	-1.1946	0.67451	0.47198	-1.3613	0.84074	0.56657	-0.8448	0.10924	0.28748	-1.2022	0.90998	0.39379	-1.5558	0.032756	0.1989	-1.1993	1.3325	0.26634	NaN	NaN	NaN	NaN	NaN	NaN	NaN	NaN	NaN	NaN	NaN	NaN	NaN	NaN	NaN	NaN	NaN	NaN
62	0.62	-1.3688	0.93573	0.25984	-1.3671	0.92836	0.30953	-1.3746	0.42979	0.16259	-1.2281	0.6287	0.15418	-1.2792	0.63796	0.10733	-1.2651	0.58425	0.13338	-1.4592	0.25546	0.1746	-1.5168	0.27906	0.14796	-1.5057	0.22331	0.16413	-1.6386	0.09874	0.2307	-1.6536	0.069094	0.22997	-1.4855	0.0083289	0.18743	-1.4622	0.016765	0.23308	-0.97922	0.098086	0.27389	-0.95785	0.071439	0.27544	-1.2904	1.3533	0.44901	-1.2487	1.3577	0.10082	-1.2535	1.202	0.044476	-1.2695	1.0284	0.032608	-1.1646	0.96801	0.028161	-1.1057	0.86163	0.023158	-1.0397	0.83709	0.032431	-1.3473	1.2112	0.47679	-1.403	1.0701	0.48659	-1.3905	0.92965	0.5556	-1.5233	0.040977	0.28394	-1.5782	0.10923	0.27594	-1.0238	0.048545	0.31391	-1.4341	0.012641	0.27193	-1.5773	0.091598	0.19319	-1.5816	0.061015	0.20356	-1.0394	0.22734	0.39307	-1.0145	0.013473	0.31557	-0.86291	0.071607	0.37586	-0.89039	0.099501	0.2871	-1.4158	0.85076	0.57551	-1.0911	0.24936	0.39998	-1.0653	0.89174	0.072398	-1.0786	0.44785	0.3866	-0.92742	0.046503	0.35598	-0.81135	0.12021	0.30059	-1.3866	0.79729	0.60172	-0.83828	0.1003	0.33688	-1.5867	0.074763	0.27355	-1.0265	0.28154	0.39166	-0.98334	0.067707	0.35553	-1.1669	0.73115	0.46455	-1.1792	0.67461	0.47193	-1.3467	0.83813	0.5659	-0.83717	0.10257	0.28499	-1.1876	0.90893	0.39367	-1.5543	0.035701	0.19822	-1.1862	1.3314	0.26724	NaN	NaN	NaN	NaN	NaN	NaN	NaN	NaN	NaN	NaN	NaN	NaN	NaN	NaN	NaN	NaN	NaN	NaN
63	0.63	-1.3539	0.93451	0.26016	-1.3521	0.9271	0.30968	-1.3616	0.42853	0.16197	-1.2141	0.62723	0.15349	-1.2661	0.63713	0.10705	-1.2516	0.58319	0.13274	-1.4508	0.25571	0.17346	-1.5076	0.281	0.14712	-1.4984	0.22532	0.16302	-1.6347	0.1047	0.22915	-1.6505	0.075348	0.22881	-1.4853	0.0087218	0.1872	-1.4617	0.016817	0.23303	-0.97392	0.093085	0.27285	-0.9532	0.066268	0.27392	-1.2776	1.3518	0.45	-1.2356	1.3566	0.10183	-1.241	1.2008	0.045456	-1.2568	1.0273	0.033563	-1.1523	0.96696	0.029105	-1.0931	0.86038	0.024159	-1.0273	0.8357	0.033321	-1.3328	1.2089	0.47723	-1.3888	1.068	0.48723	-1.3764	0.92758	0.55592	-1.5217	0.043095	0.28328	-1.5741	0.11315	0.27479	-1.0191	0.044674	0.3134	-1.4342	0.012602	0.27224	-1.5735	0.095496	0.19175	-1.5788	0.064891	0.20244	-1.0287	0.22438	0.39197	-1.0107	0.0094305	0.31531	-0.85745	0.064896	0.37353	-0.88525	0.093053	0.28507	-1.4013	0.84836	0.57537	-1.0801	0.24801	0.3996	-1.0531	0.89061	0.073628	-1.0617	0.44787	0.38477	-0.92264	0.04105	0.35451	-0.80552	0.11184	0.29755	-1.3721	0.79473	0.60126	-0.8326	0.092777	0.33395	-1.5836	0.079001	0.27241	-1.0148	0.27805	0.39011	-0.97825	0.063075	0.3543	-1.152	0.73157	0.46524	-1.1628	0.67456	0.47111	-1.3331	0.83613	0.56627	-0.83201	0.094828	0.28218	-1.173	0.90711	0.39314	-1.5524	0.038603	0.19744	-1.1731	1.3304	0.26831	NaN	NaN	NaN	NaN	NaN	NaN	NaN	NaN	NaN	NaN	NaN	NaN	NaN	NaN	NaN	NaN	NaN	NaN
